#N canvas -8 -8 1366 685 12;
#X floatatom 82 251 3 0 29 0 - - -;
#X floatatom 187 256 3 0 29 0 - - -;
#X text 180 231 label;
#X obj 187 282 t b f;
#X msg 82 350 color \$1 \$2 \$3;
#X text 191 350 presets;
#X symbolatom 485 347 9 0 0 0 - - -;
#N canvas -8 -8 1366 685 label 0;
#X obj 60 520 outlet;
#X obj 195 6 loadbang;
#X obj 110 79 vsl 15 128 0 255 0 0 empty empty empty 0 -9 0 10 -8256
-262144 -1 9300 1;
#X obj 84 79 vsl 15 128 0 255 0 0 empty empty empty 0 -9 0 10 -4033
-1 -1 12700 1;
#X obj 60 79 vsl 15 128 0 255 0 0 empty empty empty 0 -9 0 10 -258049
-1 -1 0 1;
#X symbolatom 60 368 12 0 0 0 - - -;
#X symbolatom 114 413 12 0 0 0 - - -;
#X symbolatom 200 368 12 0 0 0 - - -;
#X obj 60 470 pack symbol symbol symbol;
#X obj 60 340 makefilename %02x;
#X obj 114 390 makefilename %02x;
#X obj 200 340 makefilename %02x;
#X msg 60 495 symbol #\$1\$2\$3;
#X obj 216 419 t b s;
#X obj 130 441 t b s;
#X text 199 132 00ff00 = green;
#X text 199 149 0000ff = blue;
#X text 199 115 ff0000 = red;
#X obj 195 32 t b b;
#X obj 60 315 *;
#X obj 84 315 *;
#X obj 110 315 *;
#X obj 161 79 vsl 15 128 1 0 0 0 empty empty empty 0 -9 0 10 -1 -262144
-1 9000 1;
#X obj 136 80 vsl 15 128 0 1 0 0 empty empty empty 0 -9 0 10 -262144
-1 -1 3700 1;
#X obj 75 251 spigot;
#X obj 140 251 != \$1;
#X obj 91 227 t f f;
#X obj 233 247 spigot;
#X obj 298 247 != \$1;
#X obj 249 223 t f f;
#X obj 203 224 t f f;
#X obj 136 227 t f f;
#X obj 223 271 t f f;
#X obj 223 296 t b f b f b f;
#X obj 335 71 cnv 15 200 60 empty \$0-colors Label 35 30 0 40 -4096
-1166 0;
#X text 52 56 label;
#X msg 195 57 255;
#X msg 231 57 0.882353;
#X connect 1 0 18 0;
#X connect 2 0 21 0;
#X connect 3 0 20 0;
#X connect 4 0 19 0;
#X connect 5 0 8 0;
#X connect 6 0 14 0;
#X connect 7 0 13 0;
#X connect 8 0 12 0;
#X connect 9 0 5 0;
#X connect 10 0 6 0;
#X connect 11 0 7 0;
#X connect 12 0 0 0;
#X connect 13 0 8 0;
#X connect 13 1 8 2;
#X connect 14 0 8 0;
#X connect 14 1 8 1;
#X connect 18 0 37 0;
#X connect 18 1 36 0;
#X connect 19 0 9 0;
#X connect 20 0 10 0;
#X connect 21 0 11 0;
#X connect 22 0 30 0;
#X connect 23 0 31 0;
#X connect 24 0 22 0;
#X connect 25 0 24 1;
#X connect 26 0 24 0;
#X connect 26 1 25 0;
#X connect 27 0 32 0;
#X connect 28 0 27 1;
#X connect 29 0 27 0;
#X connect 29 1 28 0;
#X connect 30 0 29 0;
#X connect 30 1 25 1;
#X connect 31 0 28 1;
#X connect 31 1 26 0;
#X connect 32 0 33 0;
#X connect 32 1 23 0;
#X connect 33 0 21 0;
#X connect 33 1 21 1;
#X connect 33 2 20 0;
#X connect 33 3 20 1;
#X connect 33 4 19 0;
#X connect 33 5 19 1;
#X connect 36 0 4 0;
#X connect 36 0 3 0;
#X connect 36 0 2 0;
#X connect 37 0 23 0;
#X connect 37 0 22 0;
#X coords 0 -1 1 1 135 170 2 50 50;
#X restore 485 165 pd label;
#X symbolatom 345 346 9 0 0 0 - - -;
#N canvas -8 -8 1366 685 label 0;
#X text 52 56 background;
#X obj 60 520 outlet;
#X obj 195 6 loadbang;
#X obj 110 79 vsl 15 128 0 255 0 0 empty empty empty 0 -9 0 10 -8256
-262144 -1 0 1;
#X obj 84 79 vsl 15 128 0 255 0 0 empty empty empty 0 -9 0 10 -4033
-1 -1 0 1;
#X obj 60 79 vsl 15 128 0 255 0 0 empty empty empty 0 -9 0 10 -258049
-1 -1 0 1;
#X symbolatom 60 368 12 0 0 0 - - -;
#X symbolatom 114 413 12 0 0 0 - - -;
#X symbolatom 200 368 12 0 0 0 - - -;
#X obj 60 470 pack symbol symbol symbol;
#X obj 60 340 makefilename %02x;
#X obj 114 390 makefilename %02x;
#X obj 200 340 makefilename %02x;
#X msg 60 495 symbol #\$1\$2\$3;
#X obj 216 419 t b s;
#X obj 130 441 t b s;
#X text 199 132 00ff00 = green;
#X text 199 149 0000ff = blue;
#X text 199 115 ff0000 = red;
#X obj 195 32 t b b;
#X obj 60 315 *;
#X obj 84 315 *;
#X obj 110 315 *;
#X obj 161 79 vsl 15 128 1 0 0 0 empty empty empty 0 -9 0 10 -1 -262144
-1 0 1;
#X obj 136 80 vsl 15 128 0 1 0 0 empty empty empty 0 -9 0 10 -262144
-1 -1 12750 1;
#X obj 75 251 spigot;
#X obj 140 251 != \$1;
#X obj 91 227 t f f;
#X obj 233 247 spigot;
#X obj 298 247 != \$1;
#X obj 249 223 t f f;
#X obj 203 224 t f f;
#X obj 136 227 t f f;
#X obj 223 271 t f f;
#X obj 223 296 t b f b f b f;
#X obj 335 71 cnv 15 200 60 empty \$0-colors Label 35 30 0 40 -4096
-1166 0;
#X msg 231 57 0.882353;
#X msg 195 58 255;
#X connect 2 0 19 0;
#X connect 3 0 22 0;
#X connect 4 0 21 0;
#X connect 5 0 20 0;
#X connect 6 0 9 0;
#X connect 7 0 15 0;
#X connect 8 0 14 0;
#X connect 9 0 13 0;
#X connect 10 0 6 0;
#X connect 11 0 7 0;
#X connect 12 0 8 0;
#X connect 13 0 1 0;
#X connect 14 0 9 0;
#X connect 14 1 9 2;
#X connect 15 0 9 0;
#X connect 15 1 9 1;
#X connect 19 0 36 0;
#X connect 19 1 37 0;
#X connect 20 0 10 0;
#X connect 21 0 11 0;
#X connect 22 0 12 0;
#X connect 23 0 31 0;
#X connect 24 0 32 0;
#X connect 25 0 23 0;
#X connect 26 0 25 1;
#X connect 27 0 25 0;
#X connect 27 1 26 0;
#X connect 28 0 33 0;
#X connect 29 0 28 1;
#X connect 30 0 28 0;
#X connect 30 1 29 0;
#X connect 31 0 30 0;
#X connect 31 1 26 1;
#X connect 32 0 29 1;
#X connect 32 1 27 0;
#X connect 33 0 34 0;
#X connect 33 1 24 0;
#X connect 34 0 22 0;
#X connect 34 1 22 1;
#X connect 34 2 21 0;
#X connect 34 3 21 1;
#X connect 34 4 20 0;
#X connect 34 5 20 1;
#X connect 36 0 24 0;
#X connect 36 0 23 0;
#X connect 37 0 5 0;
#X connect 37 0 4 0;
#X connect 37 0 3 0;
#X coords 0 -1 1 1 135 170 2 50 50;
#X restore 345 165 pd label;
#X obj 485 377 t b s;
#X obj 267 231 loadbang;
#X obj 345 415 pack symbol symbol symbol;
#X msg 345 444 color \$1 \$2 \$3;
#X text 72 231 background;
#X text 454 445 RGB in hexadecimal;
#X text 71 164 Open subpatches for the conversion from RGB to hexadecimal
============>, f 38;
#X obj 193 540 cnv 15 200 60 empty \$0-colors Label 35 30 0 40 -4096
-1166 0;
#X obj 345 481 send \$0-colors;
#X msg 267 270 list #e1e1e1 #000000 #000000, f 7;
#X obj 82 313 pack 1 22 22, f 20;
#N canvas 281 134 818 414 old-behaviour 0;
#X floatatom 395 117 3 0 29 0 - - -;
#X floatatom 500 122 3 0 29 0 - - -;
#X text 493 97 label;
#X obj 500 158 t b f;
#X msg 395 226 color \$1 \$2 \$3;
#X text 393 97 background;
#X obj 496 320 cnv 15 200 60 empty \$0-old-behaviour Label 35 30 0
40 -233017 -1 0;
#X obj 395 266 send \$0-old-behaviour;
#X floatatom 600 116 3 0 29 0 - - -;
#X floatatom 705 121 3 0 29 0 - - -;
#X text 698 96 label;
#X obj 705 157 t b f;
#X text 590 96 background;
#X obj 600 265 send \$0-old-behaviour;
#X obj 600 188 pack 1 22, f 20;
#X msg 600 225 color \$1 \$2;
#X text 48 302 Old "compatible" behavior, f 16;
#X text 215 306 New "correct" behavior;
#X msg 37 339 \; pd compatibility 0.46;
#X msg 219 339 \; pd compatibility 0.47;
#X text 22 110 Since Pd version 0.47 \, you cannot use the color message
with only 2 values \, as the 2nd value just gets ignored. You need
to have 3 values where the third sets the label color., f 46;
#X text 22 168 You can use the "pd compatibility" message to get the
old behavior back., f 46;
#X text 22 201 Note that this is valid for all ways of using the color
message (including the new way of using hexadecimal notation introduced
in Pd 0.47) \, but in this example we're just using the "presets" option
for convenience., f 46;
#X text 410 29 When the compatibility is set to 0.47 or higher \, the
example below to the right doesn't work to set the label color., f
48;
#X text 22 37 Until Pd version 0.46 \, you could have a color message
with only two values \, where the second value would set the label
color. You could also have 3 values \, where the 2nd value was ignored
and the 3rd value would set the color., f 46;
#X text 692 226 <= Pd 0.46 way;
#X obj 408 147 loadbang;
#X obj 395 189 pack 10 0 22, f 20;
#X connect 0 0 27 0;
#X connect 1 0 3 0;
#X connect 3 0 27 0;
#X connect 3 1 27 2;
#X connect 4 0 7 0;
#X connect 8 0 14 0;
#X connect 9 0 11 0;
#X connect 11 0 14 0;
#X connect 11 1 14 1;
#X connect 14 0 15 0;
#X connect 15 0 13 0;
#X connect 26 0 27 0;
#X connect 27 0 4 0;
#X restore 467 590 pd old-behaviour;
#X text 435 523 COMPATIBILITY NOTE: The behavior changed in Pd 0.47!
Check details and how to get it back:, f 23;
#N canvas 720 84 576 472 old_way 0;
#N canvas 1004 177 402 495 label 0;
#X obj 102 80 vsl 15 128 0 255 0 0 empty empty empty 0 -9 0 10 -8256
-262144 -1 0 1;
#X obj 81 80 vsl 15 128 0 255 0 0 empty empty empty 0 -9 0 10 -4033
-1 -1 0 1;
#X obj 61 80 vsl 15 128 0 255 0 0 empty empty empty 0 -9 0 10 -258049
-1 -1 0 1;
#X text 66 56 label;
#X obj 59 361 expr -($f1 * 65536 + $f2 * 256 + $f3 + 1);
#X obj 311 319 t b f;
#X obj 169 319 t b f;
#X obj 59 413 outlet;
#X connect 0 0 5 0;
#X connect 1 0 6 0;
#X connect 2 0 4 0;
#X connect 4 0 7 0;
#X connect 5 0 4 0;
#X connect 5 1 4 2;
#X connect 6 0 4 0;
#X connect 6 1 4 1;
#X coords 0 -1 1 1 80 170 2 50 50;
#X restore 335 137 pd label;
#X text 228 112 Set RGB values in the sliders;
#N canvas 828 139 516 513 label 0;
#X obj 102 80 vsl 15 128 0 255 0 0 empty empty empty 0 -9 0 10 -8256
-262144 -1 11206 1;
#X obj 81 80 vsl 15 128 0 255 0 0 empty empty empty 0 -9 0 10 -4033
-1 -1 11206 1;
#X obj 61 80 vsl 15 128 0 255 0 0 empty empty empty 0 -9 0 10 -258049
-1 -1 11206 1;
#X obj 61 361 expr -($f1 * 65536 + $f2 * 256 + $f3 + 1);
#X obj 313 269 t b f;
#X obj 171 269 t b f;
#X obj 61 413 outlet;
#X text 52 56 background;
#X obj 180 83 loadbang;
#X msg 202 134 set 225;
#X msg 181 195 225 225 225;
#X connect 0 0 4 0;
#X connect 1 0 5 0;
#X connect 2 0 3 0;
#X connect 3 0 6 0;
#X connect 4 0 3 0;
#X connect 4 1 3 2;
#X connect 5 0 3 0;
#X connect 5 1 3 1;
#X connect 8 0 9 0;
#X connect 8 0 10 0;
#X connect 9 0 0 0;
#X connect 9 0 1 0;
#X connect 9 0 2 0;
#X connect 10 0 3 0;
#X coords 0 -1 1 1 80 170 2 50 50;
#X restore 243 137 pd label;
#X text 91 166 Open subpatches for the conversion ====>, f 20;
#X msg 282 374 color -1.48034e+007 -1 -1;
#N canvas 574 194 328 335 pack 0;
#X obj 73 47 inlet;
#X obj 206 47 inlet;
#X msg 73 152 color \$1 \$2 \$3;
#X obj 206 85 t b f;
#X obj 73 123 pack float -1 -1, f 24;
#X obj 73 187 list prepend set;
#X obj 73 213 list trim;
#X obj 73 246 t b a;
#X obj 73 283 outlet;
#X connect 0 0 4 0;
#X connect 1 0 3 0;
#X connect 2 0 5 0;
#X connect 3 0 4 0;
#X connect 3 1 4 2;
#X connect 4 0 2 0;
#X connect 5 0 6 0;
#X connect 6 0 7 0;
#X connect 7 0 8 0;
#X connect 7 1 8 0;
#X restore 282 338 pd pack;
#X f 8;
#X obj 46 355 cnv 15 200 60 empty \$0-colors-old-way Label 35 30 0
40 -233017 -1 0;
#X obj 282 410 send \$0-colors-old-way;
#X text 93 22 The RGB color scheme can also be encoded \, for backwards
compatibility \, as negative inetegers. For "R" (red) \, "G" (green)
& "B" (blue) values from 0 to 255 \, the conversion formula is \; float
= -(R * 65536 + G * 256 + B + 1)., f 47;
#X connect 0 0 5 1;
#X connect 2 0 5 0;
#X connect 4 0 7 0;
#X connect 5 0 4 0;
#X restore 64 542 pd old_way;
#X text 29 481 open subpatch below for the old way of encoding RGB
values., f 20;
#X text 30 463 See also:;
#X text 58 18 The 'color' message takes a list of three values \, but
only the first and the third are valid and set \, respectively \, background
and label colors (as there's no "front" color \, the 2nd value is ignored).
, f 76;
#X text 58 65 Integers from 0 to 29 represent the 30 preset colors
found in the properties window \, values above are wraped. Negative
integers were used to encode RGB values (and that still works for backwards
compatibility). But since Pd 0.47-0 \, you can set colors with hexadecimal
RGB symbol values \, which are followed by "#"., f 76;
#X symbolatom 625 346 9 0 0 0 - - -;
#N canvas -8 -8 1366 685 label 0;
#X text 52 56 background;
#X obj 442 72 cnv 15 100 60 empty empty empty 20 12 0 14 -233017 -66577
0;
#X symbolatom 63 480 12 0 0 0 - - -;
#X symbolatom 189 525 12 0 0 0 - - -;
#X symbolatom 305 480 12 0 0 0 - - -;
#X obj 63 582 pack symbol symbol symbol;
#X obj 63 452 makefilename %02x;
#X obj 189 502 makefilename %02x;
#X obj 305 452 makefilename %02x;
#X msg 63 607 symbol #\$1\$2\$3;
#X obj 321 531 t b s;
#X obj 189 553 t b s;
#X text 198 131 00ffff = cyan;
#X text 198 115 ffff00 = yellow;
#X text 198 151 ff00ff = magenta;
#X floatatom 2095 883 5 0 100 0 - - -;
#X obj 2095 906 / 100;
#X obj 2095 930 * 255;
#X obj 2140 906 / 100;
#X obj 2140 930 * 255;
#X obj 2185 906 / 100;
#X obj 2185 930 * 255;
#X obj 2117 835 t f f f;
#X msg 2127 811 100;
#X floatatom 2140 883 5 0 100 0 - - -;
#X floatatom 2185 883 5 0 100 0 - - -;
#X obj 63 632 outlet;
#X obj 60 79 vsl 15 128 0 255 0 0 empty \$0-cyan empty 0 -9 0 10 -4096
-1 -1 12750 1;
#X obj 84 79 vsl 15 128 0 255 0 0 empty \$0-yellow empty 0 -9 0 10
-262081 -1 -1 0 1;
#X obj 110 79 vsl 15 128 0 255 0 0 empty empty empty 0 -9 0 10 -258112
-1 -1 0 1;
#X obj 238 274 +;
#X obj 310 255 t b f;
#X obj 99 301 +;
#X obj 172 256 t b f;
#X obj 217 300 +;
#X obj 290 281 t b f;
#X obj 150 315 -;
#X obj 144 344 -;
#X obj 261 358 -;
#X obj 193 228 t f f f;
#X obj 309 229 t f f f;
#X obj 355 325 t b f;
#X obj 262 311 t b f;
#X obj 60 225 t f f f;
#X obj 122 244 t b f;
#X obj 63 378 moses 0;
#X obj 189 379 moses 0;
#X obj 305 382 moses 0;
#X obj 63 401 moses 256;
#X obj 189 402 moses 256;
#X obj 305 405 moses 256;
#X obj 195 6 loadbang;
#X obj 195 32 t b b;
#X obj 63 426 *;
#X obj 189 428 *;
#X obj 305 430 *;
#X obj 161 79 vsl 15 128 1 0 0 0 empty empty empty 0 -9 0 10 -1 -262144
-1 0 1;
#X obj 136 80 vsl 15 128 0 1 0 0 empty empty empty 0 -9 0 10 -262144
-1 -1 12750 1;
#X obj 499 373 spigot;
#X obj 564 373 != \$1;
#X obj 515 349 t f f;
#X obj 657 369 spigot;
#X obj 712 369 != \$1;
#X obj 673 345 t f f;
#X obj 627 346 t f f;
#X obj 560 349 t f f;
#X obj 647 393 t f f;
#X obj 647 418 t b f b f b f;
#X msg 195 57 255;
#X msg 231 57 0.882353;
#X connect 2 0 5 0;
#X connect 3 0 11 0;
#X connect 4 0 10 0;
#X connect 5 0 9 0;
#X connect 6 0 2 0;
#X connect 7 0 3 0;
#X connect 8 0 4 0;
#X connect 9 0 26 0;
#X connect 10 0 5 0;
#X connect 10 1 5 2;
#X connect 11 0 5 0;
#X connect 11 1 5 1;
#X connect 15 0 16 0;
#X connect 16 0 17 0;
#X connect 18 0 19 0;
#X connect 20 0 21 0;
#X connect 22 0 25 0;
#X connect 22 1 24 0;
#X connect 22 2 15 0;
#X connect 23 0 22 0;
#X connect 24 0 18 0;
#X connect 25 0 20 0;
#X connect 27 0 43 0;
#X connect 28 0 39 0;
#X connect 29 0 40 0;
#X connect 30 0 36 0;
#X connect 31 0 30 0;
#X connect 31 1 30 1;
#X connect 32 0 37 0;
#X connect 33 0 32 0;
#X connect 33 1 32 1;
#X connect 34 0 38 0;
#X connect 35 0 34 0;
#X connect 35 1 34 1;
#X connect 36 0 45 0;
#X connect 37 0 46 0;
#X connect 38 0 47 0;
#X connect 39 0 33 0;
#X connect 39 1 30 0;
#X connect 39 2 42 0;
#X connect 40 0 35 0;
#X connect 40 1 31 0;
#X connect 40 2 41 0;
#X connect 41 0 37 0;
#X connect 41 1 37 1;
#X connect 42 0 38 0;
#X connect 42 1 38 1;
#X connect 43 0 34 0;
#X connect 43 1 32 0;
#X connect 43 2 44 0;
#X connect 44 0 36 0;
#X connect 44 1 36 1;
#X connect 45 1 48 0;
#X connect 46 1 49 0;
#X connect 47 1 50 0;
#X connect 48 0 53 0;
#X connect 49 0 54 0;
#X connect 50 0 55 0;
#X connect 51 0 52 0;
#X connect 52 0 69 0;
#X connect 52 1 68 0;
#X connect 53 0 6 0;
#X connect 54 0 7 0;
#X connect 55 0 8 0;
#X connect 56 0 64 0;
#X connect 57 0 65 0;
#X connect 58 0 56 0;
#X connect 59 0 58 1;
#X connect 60 0 58 0;
#X connect 60 1 59 0;
#X connect 61 0 66 0;
#X connect 62 0 61 1;
#X connect 63 0 61 0;
#X connect 63 1 62 0;
#X connect 64 0 63 0;
#X connect 64 1 59 1;
#X connect 65 0 62 1;
#X connect 65 1 60 0;
#X connect 66 0 67 0;
#X connect 66 1 57 0;
#X connect 67 0 55 0;
#X connect 67 1 55 1;
#X connect 67 2 54 0;
#X connect 67 3 54 1;
#X connect 67 4 53 0;
#X connect 67 5 53 1;
#X connect 68 0 27 0;
#X connect 68 0 28 0;
#X connect 68 0 29 0;
#X connect 69 0 57 0;
#X connect 69 0 56 0;
#X coords 0 -1 1 1 135 170 2 50 50;
#X restore 625 165 pd label;
#X symbolatom 775 347 9 0 0 0 - - -;
#N canvas -8 -8 1366 685 label 0;
#X text 52 56 label;
#X obj 442 72 cnv 15 100 60 empty empty empty 20 12 0 14 -233017 -66577
0;
#X symbolatom 63 480 12 0 0 0 - - -;
#X symbolatom 189 525 12 0 0 0 - - -;
#X symbolatom 305 480 12 0 0 0 - - -;
#X obj 63 582 pack symbol symbol symbol;
#X obj 63 452 makefilename %02x;
#X obj 189 502 makefilename %02x;
#X obj 305 452 makefilename %02x;
#X msg 63 607 symbol #\$1\$2\$3;
#X obj 321 531 t b s;
#X obj 189 553 t b s;
#X text 198 131 00ffff = cyan;
#X text 198 115 ffff00 = yellow;
#X text 198 151 ff00ff = magenta;
#X floatatom 2095 883 5 0 100 0 - - -;
#X obj 2095 906 / 100;
#X obj 2095 930 * 255;
#X obj 2140 906 / 100;
#X obj 2140 930 * 255;
#X obj 2185 906 / 100;
#X obj 2185 930 * 255;
#X obj 2117 835 t f f f;
#X msg 2127 811 100;
#X floatatom 2140 883 5 0 100 0 - - -;
#X floatatom 2185 883 5 0 100 0 - - -;
#X obj 63 632 outlet;
#X obj 60 79 vsl 15 128 0 255 0 0 empty \$0-cyan empty 0 -9 0 10 -4096
-1 -1 12700 1;
#X obj 84 79 vsl 15 128 0 255 0 0 empty \$0-yellow empty 0 -9 0 10
-262081 -1 -1 12700 1;
#X obj 110 79 vsl 15 128 0 255 0 0 empty empty empty 0 -9 0 10 -258112
-1 -1 12700 1;
#X obj 238 274 +;
#X obj 310 255 t b f;
#X obj 99 301 +;
#X obj 172 256 t b f;
#X obj 217 300 +;
#X obj 290 281 t b f;
#X obj 150 315 -;
#X obj 144 344 -;
#X obj 261 358 -;
#X obj 193 228 t f f f;
#X obj 309 229 t f f f;
#X obj 355 325 t b f;
#X obj 262 311 t b f;
#X obj 60 225 t f f f;
#X obj 122 244 t b f;
#X obj 63 378 moses 0;
#X obj 189 379 moses 0;
#X obj 305 382 moses 0;
#X obj 63 401 moses 256;
#X obj 189 402 moses 256;
#X obj 305 405 moses 256;
#X obj 195 6 loadbang;
#X obj 195 32 t b b;
#X obj 63 426 *;
#X obj 189 428 *;
#X obj 305 430 *;
#X obj 161 79 vsl 15 128 1 0 0 0 empty empty empty 0 -9 0 10 -1 -262144
-1 1494 1;
#X obj 136 80 vsl 15 128 0 1 0 0 empty empty empty 0 -9 0 10 -262144
-1 -1 11206 1;
#X obj 499 373 spigot;
#X obj 564 373 != \$1;
#X obj 515 349 t f f;
#X obj 657 369 spigot;
#X obj 712 369 != \$1;
#X obj 673 345 t f f;
#X obj 627 346 t f f;
#X obj 560 349 t f f;
#X obj 647 393 t f f;
#X obj 647 418 t b f b f b f;
#X msg 194 57 255;
#X msg 231 57 0.882353;
#X connect 2 0 5 0;
#X connect 3 0 11 0;
#X connect 4 0 10 0;
#X connect 5 0 9 0;
#X connect 6 0 2 0;
#X connect 7 0 3 0;
#X connect 8 0 4 0;
#X connect 9 0 26 0;
#X connect 10 0 5 0;
#X connect 10 1 5 2;
#X connect 11 0 5 0;
#X connect 11 1 5 1;
#X connect 15 0 16 0;
#X connect 16 0 17 0;
#X connect 18 0 19 0;
#X connect 20 0 21 0;
#X connect 22 0 25 0;
#X connect 22 1 24 0;
#X connect 22 2 15 0;
#X connect 23 0 22 0;
#X connect 24 0 18 0;
#X connect 25 0 20 0;
#X connect 27 0 43 0;
#X connect 28 0 39 0;
#X connect 29 0 40 0;
#X connect 30 0 36 0;
#X connect 31 0 30 0;
#X connect 31 1 30 1;
#X connect 32 0 37 0;
#X connect 33 0 32 0;
#X connect 33 1 32 1;
#X connect 34 0 38 0;
#X connect 35 0 34 0;
#X connect 35 1 34 1;
#X connect 36 0 45 0;
#X connect 37 0 46 0;
#X connect 38 0 47 0;
#X connect 39 0 33 0;
#X connect 39 1 30 0;
#X connect 39 2 42 0;
#X connect 40 0 35 0;
#X connect 40 1 31 0;
#X connect 40 2 41 0;
#X connect 41 0 37 0;
#X connect 41 1 37 1;
#X connect 42 0 38 0;
#X connect 42 1 38 1;
#X connect 43 0 34 0;
#X connect 43 1 32 0;
#X connect 43 2 44 0;
#X connect 44 0 36 0;
#X connect 44 1 36 1;
#X connect 45 1 48 0;
#X connect 46 1 49 0;
#X connect 47 1 50 0;
#X connect 48 0 53 0;
#X connect 49 0 54 0;
#X connect 50 0 55 0;
#X connect 51 0 52 0;
#X connect 52 0 69 0;
#X connect 52 1 68 0;
#X connect 53 0 6 0;
#X connect 54 0 7 0;
#X connect 55 0 8 0;
#X connect 56 0 64 0;
#X connect 57 0 65 0;
#X connect 58 0 56 0;
#X connect 59 0 58 1;
#X connect 60 0 58 0;
#X connect 60 1 59 0;
#X connect 61 0 66 0;
#X connect 62 0 61 1;
#X connect 63 0 61 0;
#X connect 63 1 62 0;
#X connect 64 0 63 0;
#X connect 64 1 59 1;
#X connect 65 0 62 1;
#X connect 65 1 60 0;
#X connect 66 0 67 0;
#X connect 66 1 57 0;
#X connect 67 0 55 0;
#X connect 67 1 55 1;
#X connect 67 2 54 0;
#X connect 67 3 54 1;
#X connect 67 4 53 0;
#X connect 67 5 53 1;
#X connect 68 0 27 0;
#X connect 68 0 28 0;
#X connect 68 0 29 0;
#X connect 69 0 57 0;
#X connect 69 0 56 0;
#X coords 0 -1 1 1 135 170 2 50 50;
#X restore 775 165 pd label;
#X obj 775 374 t b s;
#X text 356 140 Set RGBWK values in the sliders;
#X text 636 140 Set CYMWK values in the sliders;
#X msg 702 490 \; pd-ChangeColour.pd obj 50 158 cnv 15 200 60 empty
empty Label 35 30 0 40 -204786 -204786 0 \;;
#X connect 0 0 20 0;
#X connect 1 0 3 0;
#X connect 3 0 20 0;
#X connect 3 1 20 2;
#X connect 4 0 18 0;
#X connect 6 0 10 0;
#X connect 7 0 6 0;
#X connect 8 0 12 0;
#X connect 9 0 8 0;
#X connect 10 0 12 0;
#X connect 10 1 12 2;
#X connect 11 0 19 0;
#X connect 12 0 13 0;
#X connect 13 0 18 0;
#X connect 19 0 12 0;
#X connect 20 0 4 0;
#X connect 28 0 12 0;
#X connect 29 0 28 0;
#X connect 30 0 32 0;
#X connect 31 0 30 0;
#X connect 32 0 12 0;
#X connect 32 1 12 2;
